<svg xmlns="http://www.w3.org/2000/svg" viewBox="0 0 480 520" fill="none" aria-hidden="true">
  <g fill="#512071">
    <ellipse cx="240" cy="498" rx="118" ry="14" opacity="0.22"/>
    <path d="M176 318c-8-44 18-86 64-96 46-10 92 22 100 66 8 44-18 86-64 96-46 10-92-22-100-66z"/>
    <circle cx="240" cy="132" r="52"/>
    <path d="M188 184c-6 10-10 22-10 34 0 8 2 16 6 22l-34 118c-4 14 6 28 20 28h140c14 0 24-14 20-28l-34-118c4-6 6-14 6-22 0-12-4-24-10-34-18 14-40 22-64 22s-46-8-64-22z"/>
    <path d="M318 250c18 0 34 14 36 32l12 88c2 16-10 30-26 30h-18l-8-62c18-8 30-26 30-46 0-2 0-4-1-6 12-4 22-14 26-26 8-20-2-42-22-50-8-4-18-6-28-6z"/>
    <rect x="332" y="286" width="54" height="72" rx="10"/>
    <path d="M338 286h42c6 0 10 4 10 10v8c0 6-4 10-10 10h-42c-6 0-10-4-10-10v-8c0-6 4-10 10-10z"/>
    <path d="M346 358v34c0 8 6 14 14 14h8"/>
    <circle cx="378" cy="412" r="10"/>
    <path d="M142 262c-10 6-18 16-22 28-6 18 2 38 18 48l-20 74c-4 14 6 28 20 28h24l10-78c-14-10-22-28-20-46 2-12 10-22 20-28-6-10-8-22-6-34 2-12 10-22 20-28-10-2-20-2-30 0-10 2-18 8-24 16z"/>
    <rect x="88" y="300" width="48" height="64" rx="10"/>
    <path d="M94 300h36c6 0 10 4 10 10v8c0 6-4 10-10 10h-36c-6 0-10-4-10-10v-8c0-6 4-10 10-10z"/>
    <path d="M102 364v28c0 8 6 14 14 14h6"/>
    <circle cx="128" cy="412" r="10"/>
    <path d="M214 132c-8-2-14-8-16-16-2 10 2 20 10 26 4-4 8-8 6-10z"/>
    <path d="M266 132c8-2 14-8 16-16 2 10-2 20-10 26-4-4-8-8-6-10z"/>
  </g>
</svg>
